<svg width="1200" height="820" viewBox="0 0 1200 820" fill="none" xmlns="http://www.w3.org/2000/svg">
  <rect width="1200" height="820" rx="56" fill="#F8FAFC"/>
  <rect x="52" y="52" width="1096" height="716" rx="44" fill="#FFFFFF"/>
  <rect x="88" y="88" width="1024" height="644" rx="34" fill="#FFF4F7"/>
  <circle cx="932" cy="176" r="108" fill="#FFE1EA"/>
  <rect x="134" y="146" width="330" height="158" rx="28" fill="#FFFFFF"/>
  <rect x="166" y="180" width="170" height="18" rx="9" fill="#11161D"/>
  <rect x="166" y="214" width="222" height="14" rx="7" fill="#97A4B5"/>
  <rect x="166" y="246" width="196" height="14" rx="7" fill="#97A4B5"/>
  <path d="M236 384L600 174L966 384V414H236V384Z" fill="#FF5C8D"/>
  <rect x="270" y="404" width="660" height="224" rx="28" fill="#FFFFFF"/>
  <rect x="314" y="446" width="146" height="140" rx="20" fill="#FFE1EA"/>
  <rect x="496" y="446" width="146" height="140" rx="20" fill="#FFE1EA"/>
  <rect x="678" y="446" width="208" height="140" rx="24" fill="#11161D"/>
  <rect x="340" y="474" width="94" height="84" rx="14" fill="#FFFFFF"/>
  <rect x="522" y="474" width="94" height="84" rx="14" fill="#FFFFFF"/>
  <rect x="714" y="474" width="136" height="16" rx="8" fill="#FF8FB1"/>
  <rect x="714" y="506" width="112" height="14" rx="7" fill="#97A4B5"/>
  <rect x="714" y="534" width="150" height="14" rx="7" fill="#97A4B5"/>
  <rect x="176" y="596" width="848" height="78" rx="24" fill="#FFFFFF"/>
  <rect x="212" y="624" width="154" height="14" rx="7" fill="#11161D"/>
  <rect x="396" y="624" width="214" height="14" rx="7" fill="#97A4B5"/>
  <rect x="644" y="610" width="176" height="42" rx="21" fill="#FF2D6F"/>
  <circle cx="910" cy="614" r="28" fill="#FFE1EA"/>
  <rect x="808" y="190" width="218" height="126" rx="24" fill="#FFFFFF"/>
  <rect x="840" y="222" width="144" height="16" rx="8" fill="#11161D"/>
  <rect x="840" y="252" width="120" height="12" rx="6" fill="#97A4B5"/>
  <rect x="840" y="276" width="152" height="12" rx="6" fill="#97A4B5"/>
</svg>
