<svg width="1200" height="820" viewBox="0 0 1200 820" fill="none" xmlns="http://www.w3.org/2000/svg">
  <rect width="1200" height="820" rx="56" fill="#F8FAFC"/>
  <rect x="52" y="52" width="1096" height="716" rx="44" fill="#FFFFFF"/>
  <rect x="88" y="88" width="1024" height="644" rx="34" fill="#FFF3F7"/>
  <circle cx="258" cy="194" r="88" fill="#FFF1F5"/>
  <circle cx="944" cy="190" r="122" fill="#FFE1EA"/>
  <rect x="150" y="152" width="294" height="164" rx="30" fill="#11161D"/>
  <rect x="184" y="190" width="148" height="18" rx="9" fill="#FF8FB1"/>
  <rect x="184" y="226" width="196" height="14" rx="7" fill="#97A4B5"/>
  <rect x="184" y="256" width="158" height="14" rx="7" fill="#97A4B5"/>
  <circle cx="416" cy="462" r="94" fill="#FED7C8"/>
  <path d="M304 582C304 516.83 356.83 464 422 464H456C521.17 464 574 516.83 574 582V606H304V582Z" fill="#35404F"/>
  <path d="M350 366C350 330.654 378.654 302 414 302H458C493.346 302 522 330.654 522 366V404H350V366Z" fill="#1F2732"/>
  <rect x="238" y="606" width="402" height="38" rx="19" fill="#1F2732"/>
  <circle cx="794" cy="454" r="134" fill="#FFFFFF"/>
  <path d="M826 360L866 400L762 504L722 464L826 360Z" fill="#FF2D6F"/>
  <path d="M718 468L652 534C636.536 549.464 636.536 574.536 652 590V590C667.464 605.464 692.536 605.464 708 590L774 524L718 468Z" fill="#11161D"/>
  <path d="M864 420L916 472C934.778 490.778 934.778 521.222 916 540L894 562L772 440L794 418C812.778 399.222 843.222 399.222 862 418L864 420Z" fill="#FF8FB1"/>
  <rect x="868" y="338" width="158" height="164" rx="30" fill="#FFFFFF"/>
  <rect x="904" y="374" width="88" height="16" rx="8" fill="#11161D"/>
  <rect x="904" y="406" width="66" height="14" rx="7" fill="#97A4B5"/>
  <rect x="904" y="434" width="102" height="14" rx="7" fill="#97A4B5"/>
  <rect x="172" y="620" width="856" height="72" rx="24" fill="#FFFFFF"/>
  <rect x="210" y="646" width="150" height="14" rx="7" fill="#11161D"/>
  <rect x="390" y="646" width="228" height="14" rx="7" fill="#97A4B5"/>
  <rect x="760" y="632" width="226" height="40" rx="20" fill="#FF2D6F"/>
</svg>
