<svg width="1200" height="820" viewBox="0 0 1200 820" fill="none" xmlns="http://www.w3.org/2000/svg">
  <rect width="1200" height="820" rx="56" fill="#F8FAFC"/>
  <rect x="62" y="62" width="1076" height="696" rx="40" fill="#FFFFFF"/>
  <rect x="98" y="98" width="1004" height="624" rx="32" fill="#EEF2F6"/>
  <circle cx="903" cy="230" r="144" fill="#FFE1EA"/>
  <circle cx="222" cy="174" r="74" fill="#FFF1F5"/>
  <rect x="640" y="148" width="340" height="168" rx="30" fill="#11161D"/>
  <rect x="672" y="182" width="188" height="18" rx="9" fill="#FF8FB1"/>
  <rect x="672" y="220" width="248" height="16" rx="8" fill="#6B7788"/>
  <rect x="672" y="252" width="164" height="16" rx="8" fill="#6B7788"/>
  <rect x="154" y="570" width="900" height="86" rx="24" fill="#FFFFFF"/>
  <rect x="182" y="596" width="188" height="16" rx="8" fill="#C5CFDB"/>
  <rect x="398" y="596" width="234" height="16" rx="8" fill="#C5CFDB"/>
  <rect x="660" y="596" width="142" height="16" rx="8" fill="#FF5C8D"/>
  <rect x="830" y="580" width="190" height="48" rx="24" fill="#FF2D6F"/>
  <circle cx="435" cy="338" r="82" fill="#FFDFC9"/>
  <path d="M326 431C326 375.772 370.772 331 426 331H448C503.228 331 548 375.772 548 431V538H326V431Z" fill="#1F2732"/>
  <path d="M353 263C353 225.997 382.997 196 420 196H454C491.003 196 521 225.997 521 263V300H353V263Z" fill="#35404F"/>
  <rect x="304" y="538" width="278" height="42" rx="21" fill="#35404F"/>
  <rect x="480" y="414" width="276" height="176" rx="28" fill="#FFFFFF"/>
  <rect x="504" y="440" width="228" height="128" rx="20" fill="#11161D"/>
  <rect x="532" y="474" width="112" height="16" rx="8" fill="#FF8FB1"/>
  <rect x="532" y="506" width="164" height="14" rx="7" fill="#97A4B5"/>
  <rect x="532" y="534" width="136" height="14" rx="7" fill="#97A4B5"/>
  <path d="M222 454C222 420.863 248.863 394 282 394H352V538H222V454Z" fill="#FF2D6F"/>
  <rect x="820" y="404" width="198" height="146" rx="26" fill="#FFFFFF"/>
  <rect x="846" y="436" width="146" height="18" rx="9" fill="#11161D"/>
  <rect x="846" y="472" width="120" height="14" rx="7" fill="#6B7788"/>
  <rect x="846" y="500" width="88" height="14" rx="7" fill="#6B7788"/>
</svg>
