<svg width="1200" height="820" viewBox="0 0 1200 820" fill="none" xmlns="http://www.w3.org/2000/svg">
  <rect width="1200" height="820" rx="56" fill="#F8FAFC"/>
  <rect x="52" y="52" width="1096" height="716" rx="44" fill="#FFFFFF"/>
  <rect x="88" y="88" width="1024" height="644" rx="34" fill="#FDF2F8"/>
  <circle cx="930" cy="188" r="128" fill="#FFE1EA"/>
  <circle cx="252" cy="170" r="84" fill="#FFF1F5"/>
  <rect x="138" y="142" width="394" height="194" rx="30" fill="#11161D"/>
  <rect x="172" y="176" width="168" height="20" rx="10" fill="#FF8FB1"/>
  <rect x="172" y="214" width="240" height="16" rx="8" fill="#6B7788"/>
  <rect x="172" y="246" width="202" height="16" rx="8" fill="#6B7788"/>
  <rect x="638" y="120" width="366" height="236" rx="34" fill="#FFFFFF"/>
  <rect x="674" y="158" width="294" height="164" rx="24" fill="#EEF2F6"/>
  <path d="M674 206H968" stroke="#C5CFDB" stroke-width="10" stroke-linecap="round"/>
  <path d="M674 242H928" stroke="#C5CFDB" stroke-width="10" stroke-linecap="round"/>
  <path d="M674 278H874" stroke="#FF5C8D" stroke-width="10" stroke-linecap="round"/>
  <path d="M118 596C118 562.863 144.863 536 178 536H1022C1055.14 536 1082 562.863 1082 596V672H118V596Z" fill="#FFFFFF"/>
  <rect x="166" y="574" width="212" height="18" rx="9" fill="#11161D"/>
  <rect x="166" y="610" width="272" height="16" rx="8" fill="#97A4B5"/>
  <rect x="772" y="568" width="258" height="52" rx="26" fill="#FF2D6F"/>
  <circle cx="420" cy="428" r="96" fill="#FED7C8"/>
  <path d="M308 544C308 481.592 358.592 431 421 431H451C513.408 431 564 481.592 564 544V566H308V544Z" fill="#35404F"/>
  <path d="M356 334C356 298.654 384.654 270 420 270H454C489.346 270 518 298.654 518 334V374H356V334Z" fill="#1F2732"/>
  <rect x="264" y="566" width="344" height="36" rx="18" fill="#1F2732"/>
  <rect x="506" y="414" width="264" height="170" rx="28" fill="#FFFFFF"/>
  <rect x="530" y="438" width="216" height="122" rx="18" fill="#11161D"/>
  <rect x="560" y="468" width="104" height="16" rx="8" fill="#FF8FB1"/>
  <rect x="560" y="500" width="152" height="14" rx="7" fill="#97A4B5"/>
  <rect x="560" y="528" width="118" height="14" rx="7" fill="#97A4B5"/>
  <path d="M838 468C838 439.281 861.281 416 890 416H980V560H838V468Z" fill="#FF5C8D"/>
  <circle cx="960" cy="454" r="48" fill="#FFFFFF" fill-opacity="0.2"/>
</svg>
