<svg width="1200" height="820" viewBox="0 0 1200 820" fill="none" xmlns="http://www.w3.org/2000/svg">
  <rect width="1200" height="820" rx="56" fill="#F8FAFC"/>
  <rect x="62" y="62" width="1076" height="696" rx="40" fill="#FFFFFF"/>
  <rect x="104" y="104" width="992" height="612" rx="34" fill="#EEF2F6"/>
  <path d="M236 558C356 446 470 458 580 386C688 316 766 332 930 208" stroke="#FF2D6F" stroke-width="24" stroke-linecap="round" stroke-dasharray="1 44"/>
  <circle cx="236" cy="558" r="34" fill="#11161D"/>
  <circle cx="580" cy="386" r="34" fill="#FF2D6F"/>
  <circle cx="930" cy="208" r="34" fill="#11161D"/>
  <rect x="282" y="252" width="474" height="240" rx="34" fill="#FFFFFF"/>
  <rect x="320" y="288" width="398" height="130" rx="24" fill="#FF5C8D"/>
  <rect x="348" y="316" width="146" height="76" rx="16" fill="#FFFFFF"/>
  <rect x="518" y="316" width="170" height="76" rx="16" fill="#FFFFFF"/>
  <circle cx="394" cy="512" r="42" fill="#11161D"/>
  <circle cx="642" cy="512" r="42" fill="#11161D"/>
  <rect x="796" y="332" width="210" height="170" rx="28" fill="#FFFFFF"/>
  <rect x="828" y="364" width="144" height="18" rx="9" fill="#11161D"/>
  <rect x="828" y="398" width="106" height="14" rx="7" fill="#97A4B5"/>
  <rect x="828" y="428" width="128" height="14" rx="7" fill="#97A4B5"/>
  <rect x="190" y="594" width="820" height="86" rx="24" fill="#FFFFFF"/>
  <rect x="224" y="622" width="124" height="14" rx="7" fill="#11161D"/>
  <rect x="372" y="622" width="214" height="14" rx="7" fill="#97A4B5"/>
  <rect x="610" y="622" width="162" height="14" rx="7" fill="#97A4B5"/>
  <rect x="812" y="608" width="166" height="42" rx="21" fill="#FF2D6F"/>
</svg>
