<svg width="1200" height="820" viewBox="0 0 1200 820" fill="none" xmlns="http://www.w3.org/2000/svg">
  <rect width="1200" height="820" rx="56" fill="#F8FAFC"/>
  <rect x="52" y="52" width="1096" height="716" rx="44" fill="#FFFFFF"/>
  <rect x="88" y="88" width="1024" height="644" rx="34" fill="#EFF6FF"/>
  <path d="M192 570C318 474 446 458 582 378C706 306 810 308 988 184" stroke="#FF2D6F" stroke-width="24" stroke-linecap="round" stroke-dasharray="1 44"/>
  <circle cx="192" cy="570" r="36" fill="#11161D"/>
  <circle cx="582" cy="378" r="36" fill="#FF2D6F"/>
  <circle cx="988" cy="184" r="36" fill="#11161D"/>
  <rect x="264" y="254" width="470" height="248" rx="34" fill="#FFFFFF"/>
  <rect x="304" y="292" width="394" height="138" rx="24" fill="#FF5C8D"/>
  <rect x="336" y="324" width="142" height="82" rx="16" fill="#FFFFFF"/>
  <rect x="504" y="324" width="162" height="82" rx="16" fill="#FFFFFF"/>
  <circle cx="390" cy="530" r="44" fill="#11161D"/>
  <circle cx="646" cy="530" r="44" fill="#11161D"/>
  <rect x="790" y="330" width="230" height="176" rx="30" fill="#FFFFFF"/>
  <rect x="824" y="366" width="154" height="18" rx="9" fill="#11161D"/>
  <rect x="824" y="400" width="118" height="14" rx="7" fill="#97A4B5"/>
  <rect x="824" y="430" width="146" height="14" rx="7" fill="#97A4B5"/>
  <rect x="168" y="610" width="862" height="72" rx="24" fill="#FFFFFF"/>
  <rect x="204" y="636" width="136" height="14" rx="7" fill="#11161D"/>
  <rect x="370" y="636" width="230" height="14" rx="7" fill="#97A4B5"/>
  <rect x="744" y="622" width="242" height="40" rx="20" fill="#FF2D6F"/>
  <rect x="152" y="182" width="244" height="82" rx="24" fill="#FFFFFF"/>
  <rect x="184" y="214" width="120" height="14" rx="7" fill="#11161D"/>
  <rect x="184" y="238" width="170" height="12" rx="6" fill="#97A4B5"/>
</svg>
